<mxfile host="65bd71144e">
    <diagram id="BfaGRgFsm0zs1OBGxK6Y" name="Page-1">
        <mxGraphModel dx="331" dy="1632" grid="1" gridSize="10" guides="1" tooltips="1" connect="1" arrows="1" fold="1" page="1" pageScale="1" pageWidth="850" pageHeight="1100" math="0" shadow="0">
            <root>
                <mxCell id="0"/>
                <mxCell id="1" parent="0"/>
                <mxCell id="3" value="Index.html" style="rounded=0;whiteSpace=wrap;html=1;horizontal=1;verticalAlign=top;" vertex="1" parent="1">
                    <mxGeometry x="10" y="-20" width="330" height="440" as="geometry"/>
                </mxCell>
                <mxCell id="2" value="" style="shape=image;verticalLabelPosition=bottom;labelBackgroundColor=#ffffff;verticalAlign=top;aspect=fixed;imageAspect=0;image=data:image/png,iVBORw0KGgoAAAANSUhEUgAAAfoAAAK/CAYAAACBaA8LAAAgAElEQVR4nOzde3xU9Z3H/zck5MYkIRBIsAhIAAVaTRABWRGIIg2s0lRjabG0+gtVAV3QSAv7U4psoSIqq4BastpSrVSqFC1k8RJQ/FFQSoI1iEBUKCsJCWCSgVwg4ffHTJKZySSZye0k37yejwePNjPn8jknY97nezlnuoRHxVwSAAAwUlerCwAAAK2HoAcAwGAEPQAABiPoAQAwGEEPAIDBCHoAAAxG0AMAYDCCHgAAgxH0AAAYjKAHAMBgBD0AAAYj6AEAMBhBDwCAwQh6AAAMRtADAGAwgh4AAIMR9AAAGIygBwDAYAQ9AAAGI+gBADBYoNUFAGgZU5KSJElXXx0vSYrtG6vY2L6KiY2VJOXn5Skv76TyTuYpPz9PknQgO0t5eXnKz8uzpmgAra5LeFTMJauLANA0U5KSdPXV8YpPSKgJ9KY4kJ2lDb9/mdAHDETQAx3MNfHxumVKUk0LvqUdyM7Syt+uIPABQxD0QAcRExurhb9apGviE9pkf9szMrThDy8T+EAHR9ADHcAjv1zUai34xhD4QMdG0APt2DXx8Xpq9bNWlyFJenj+gzqQnW11GQD8FBAcavu11UUAqGvWz+/Wwl8ttrqMGlO+7+hRIOyBjoWgB9qhp1b/d02wtifV8wPy8vJ0zm63uBoAviDogXYkJjZWj//Xb9pswl1TXBOfoMGDB+tAdjZhD3QAjNED7chTq/+7XYe8q/y8PD00/0Em6QHtHI/ABdqJR37ZdrfOtYSY2Nh2ObwAwB1d90A7MOvnd+v2lBSry/Bb9YUJE/SA9otn3QMWuyY+XrN+fneDy2z4/cvKz89TTIyjFd2cx936antGhj79NFsxMbEN1jfr53frQHYWYQ+0U4zRAxaKiY3Vqxtfb3S5myfe6PZz9cVBS3f1Vz/z3jO0X934eqMXFzNn3Ml4PdAO0aIHLOTLGLe38DyQna2H5/+HromP18JfLa4TwtszMmrXz69dPyYmts632lXvY+Vvl9fbKs/Oymr0yXxTvp+kDb9/udHjAdC2aNEDFvG1Nb/h9y83GqDVIZydleVXq/qa+HjF9u3rdmFQ3/Yf+eWiRrdHqx5of2jRAxaZ9bOGx+X90VhQ1+dAdnaLjq3TqgfaH26vAywQExtr2ZfUNEXeyZM+LTfr53e3yURBAL4j6AEL+NOaj4mxPjj9mfTXkj0VAJqPoAfamL+t+di+1ge9P6Yktc3tfwB8Q9ADbSzWzxCMje3bSpX4zt8n4MUndJwn/AGmI+iBNubvve8rf7u8lSrxnb/PtL/66vhWrAaAPwh6oI019hQ8V+3liXP5eXna/r++z+yn+x5oPwh6oA35G34Pz/+PVqrEfxt+/7JfrXp/hygAtA6CHmhD/ox1N/Xe+NaUnZXl87Kxfa2fWwCAoAfaLddH17YXn37q+zAC4/RA+0DQA23In3viD2T73npuK74+OAdA+0HQA23In3vi28MkPE8HsrN9HqfvaPf/A6Yi6IE21B7uiW8rnelYgfaMoAfakD+z7jv67WkdvX7AFAQ90IZM+ApXAhzoWAh6AK3ChIsawAQEPdBOtcfnxdOaBzoegh5oQ3l5vt+e1h7vQ/fngT/+HCuA1kPQA20o76Qfj5Bth7enXRPv+8WHP8cKoPUQ9EAb8ufJctfEJ7SrrvKY2Fi/vnmvPT7ZD+iMCHqgDfn7ZLlZP/P9m+5am7/fSd8en+wHdEYEPdCG/HmynNR+vu41JjbWr6/Xzc/La5dP9gM6I4IeaGP+TlJ7evWzlof9wl8t8mt5JuIB7QdBD7Qxf1u6MbGxlob9U6v/26+xeal9Pqcf6Ky6hEfFXLK6CKCzeXXj634Hd35enjb84eU2+576a+LjNevnd/sd8vl5eZo5485WqgqAvwKCQ22/troIoLOJixuswUOGeH3vQHaWuqiLbDab2+s2m03/dsN4XRMfr/y8vFZ78tw18fGa9bO7NeeBB5v0xTRv/mUTLXqgHaFFD1jgmvh4PbX62Tqvz5xxZ02AT0lK0qyf3V1vy/9AdpYOZGfrQHaW8poZ/FOSknT11fGKT2j+LX2uxwDAegQ9YBFv3ff5eXl6aP6DNUHp7/j8k0+s8LlrPyY2Vgt/tcjvrvmG0G0PtD9MxgMssvK3y+u8FhMbq1c3vl7zBLrqcXlfWsgHsrP8Gr9vjVvgvB0TAGsR9IBFDmRna8PvX/b63lMurfjtGRna/r+NB3h922psnZbqZt/w+5cZmwfaIYIesFBDQev6VLwNv294tn1zWuctcc97fl5eky40ALQ+gh6wWH2tdc+n4j35xAo9PP9BHcjOcrs42J6R0awu85b48pkNfyDkgfYq0OoCgM6uuiXs7RGzs352t558YkXNzweys/Xw/P9o0f0398tnGuttAGAtWvRAO1BfWE5JStKUJP++TKYtHcjOosseaOcIeqCdePKJFV7H6x/55aJ28+U2rvLz8lq8dwFAy+PJeEA78v99tEs33DC+zlPx/u2G8Ro8eHDNk+piY2MVGxur+IQEDR4yRDabrcmz56+JT2jCs+yzdG/q/9Ok/QFoW4zRA+1I9QNnqlvxrmoDue5Yflve2nYgO4uWPNCB0HUPtENPPrGiXY59b/j9y4Q80MHQogfaqQ2/f1n5+XkNPu++LTlu7eOBOEBHQ4seaMe2Z2Ro5ow7tT0jo8Ex+JiY1rsQ2J6RoZsn3kjIAx0ULXqgA3jyiRVN/n74pqq+dY6ABzo2gh7oIKoflnNNfLxumZLk9pWyzXnojee62zMy9M72DAIeMARfUwt0YLN+frfy8/Oa/WS66hn+2VlZfJc8YBiCHgAAgzEZDwAAgxH0AAAYjKAHAMBgBD0AAAYj6AEAMBhBDwCAwQh6AAAMRtADAGAwgh4AAIMR9AAAGIygBwDAYAQ9AAAGI+gBADAYQQ8AgMEIegAADEbQAwBgMIIeAACDEfQAABiMoAcAwGAEPQAABiPoAQAwGEEPAIDBCHoAAAxG0AMAYDCCHgAAgxH0AAAYjKAHAMBgBD0AAAYj6AEAMBhBDwCAwQh6AAAMRtADAGAwgh4AAIMR9AAAGIygBwDAYAQ9AAAGI+gBADAYQQ8AgMEIegAADEbQAwBgMIIeAACDEfQAABiMoAcAwGAEPQA0yxw9v/NDPT/X6joA7wh6AAAMFmh1ATBZuPpPTdUDMyZoRGxPBQU5X66sUEXRSeXs3qjnVm3V8erFr5ij59fN0BDt18tJ8/WqRVX7o/996XphxlApK11TF2ywuhzL2PpP08z7pmnMVUMVGxmkoADnG5UVqqiwKy/nH3p/55+V8bfDOuOyXtPP3xw9v3OG+u5eph8sftfntRKXb9XicSe1aWKqXvRjb0BHRtCjlYzQ3c+t1Mzvhaui4LCy3/tAJ8ucb0UOUMKIIUoYN0GD5RL0vXopPFRSRZD3TbZDvXqGK0hSRWf9L8k2QQ+sWqDpV/WUKs/o+MH9en/nSVVUvx/SV0OGDVD/hMm6e9RkpYxzD+ZOf/6ANsB/XmgVict+o5nfkw6+Ol+L1++X3dtCtnDZXH/et0z3zXpT/XVcB9umzGbLWp6qe97uL32V04Z7TdaSjanqtXOaHnyhDXfraXiqnl05S8NDS3RkyzL95zPvurXW3fXU6JTZurnXabdX6z9/7eQYAQMQ9Gh5VyzQXeN7yp61rv6QlyR7SZ337MdzOkzIO5To+D/bMuQlqa9iY8OlgMaXbDW2aVr+X7M0XJ/p1Qfm6OVGf2ln9PGmJ/RxndfrO3/t4BgBQzAZDy1v/BDFqkJHdm+sP+TRgQ3QvasWaLTtmLYs9CXkAViJoEfLCw9Sxxllh9+mL1DSVUHKe+e3eo6QB9o9uu7R8nJO6kzKUA0YMVbatMevVe9N/1Ap2qibU9d5ebenEu/7le66ZaT693ReSlRWyF5wWLteT9eLb+7XTK/rO2Zoa9ONun9tuBJ+OEd333mjBvcOd8wOr6zQmeN/15ZnV+rVrBI/D9Z127WvJi7fqsUjcrR8+kJl9p6sexfM0k0JA9Qz1LmA/aQOvp+uXzc4ru3l3Ax2eSHlQ72XUvvjEY8aJC/HKkkVJcr7Mke7Nv1WL77v695rt3n3lO/KZt+vl1e1xJCF+/nz/xhbwmQt3/Kohuc0PoO/4c+ng63/NN394AyNv3qAqj+mKj2j41nv6JVn1imzoAVLB3xA0KPl7dyovScmKGncAj08PlVP7fI3PL2wTdPi9AVKjJXOHNqvjL9+oMyDJ2W7YqzG33iLbnpwtcYkPKFdDW4kXEnL/qiHx3XT8b0f6tVX3tXBvL4anjhZSZMm6O5V39Pgp36qpdtaoN5qw+fo+admaID9M320ZZ127TssXTFW42+apsTpj+qVK4co7b51Ps1L2LRqvj62SdJkPbBqmrRtvp7LrH3ffsxlYds0LX5hgRL7Bcn+1R69v2m/Pt53WHbbUI0ePVJjxo5VyqOva/y4Z3Tfsq1+DLEkK2FwkCpy9miLz+v4zq9jbIeG37NOy2d+VxXH92jvKxuVefCkFPtdJU35oW4YN0OLE0ZqyMOpepGeELQhgh6tIEdPLd+owU/NUNKyjRq8ZXUjM7IbM0L3rl6gxJ4nlfHoHPcLh337tWvTOtnG/1LPPrpASZJq79dzF57wjB6I/Uavpv1SL7u03LP2bdWrLyfryfQFGj9rvkZvW+Zl0lhT9FXKf41U+N5ndNevN9ce/7792rXpj8pYsE6/mf5D3Tfrj3pwQ+MXF2cO7XduY6zKJencfmXt87KgbZqWb/ilRtuOKWPZf+gpt1b7fmXt3KgXFa7xaeu06N9/qRdKv9ZdvrbOb/mu+gdJx77Y6NvyfvL5GNuh4P4r9eureynr2R9o6RaPc/63DbIlLNCTTyQr5b+W6cgPH1VmvVsCWhZj9GgdB9fp/lnPaNeJYA2Z/qhe2bROD9zUs0mbGp72mFIGl+vj1XPq7R2w73pCD67/rMFb8GMHR2vvs3PcQr5GwWY9t/OYFHutkiY2qcy6IgdowKk3tdg15GuUKOuZN5VjD9LwcT9toR06jF4wS6N7nnGcr3q75ku0a9UcPbe3RLH//is9cIWPGx/SUzaV6OyXLVWtOfqPGaFjL6V6hHwte9YzeuSVz1TRc4LuWjCgjatDZ0aLHq2nYLOW3vWeEmY+qofvGqvpj/5VN6Vs1rOPPuPHOOVk3TW+ryoObtDyRrrU7Zs2KuvOkRpfz/sVB/+mp96pf/3jf/1MedOnKXaEpJ2+1teQM9q7YV19HQySNuvjI3OVMGigEqUWauElK2WMb+dLKlHGC+8pZUyyxtw1Us8t298iFbQl27hH9d7OR/1c62Sr1KLj7+m5TY18Rjds0N5bV2r8iGmyaR13paBNEPRoZSXKenWh7toyUjMX/1IzxyVr8cYJSlr/n3pkow/dxaPGqn9khY6+ke7DH8U9yiuq/928Q39ueBtfHdPJUmnIdyZL8v2xqvUqOqyPdze8yN7/O617E3pqiFoo6CeO1ABbhY7u8eV8SfrqTeWcSFbSoAmyqYFnHvjJ8ajZ8LpvFO1xTFBsof1UfPWBMrJ8HxTqmTBN433tvfBT3qdvNnBRV22PDp6o0PhBAzVeUkbrlAK4IejRNuz79eriH2lLQqqW/3qWEu77bz3f6z90/9pGwn7UAMXKriON/wVtVHllYy3c07pQ0cgi/u6zkfePl7bgxD9JGtFXPWVXjs/n65jyiiuk7/TVaPlwsVFSoQoFyxbb8GJHP9qsLXnuQd8zYZrGN230pl4VJz/Uc8/686z7m1st6EtKfZspeLq0XIrsqf6tUwZQB0GPNmXPSteDM/frgdUrNT3lMS3O+pGWN9TqDZCkQuW1SFd6Z+Hf+Tr5bbn0HR8XPnhSZ/Rd9RwwUlL9Xf3Ht6XrOY/XEpff3OJBD6BxTMZD27Pv13Mv/V1n1FfxSRN8WCFcvUa1elUG8e989e0R7PvC+/boeJEUe+VkWqRNFBwgqeiMD938QMsg6GGN3Tk6Vir17Dui4eVO2VWhXopqpe5W4+Sc1Bn1UuxwX1cYoNiIIKngax/Hzd/VX7POSP1u1H23NLnK9imgsec5jlQvW/3vBgd4mZNQxwAN/064dOZkI898AFoOQQ9LVZQ0MpEq47COKUhDEib7sLUZGuxrF7Spdu7XMXuQBo9NVQOZVOuKH2pEPynv0Fafd/HxH97RkYpwjb5vmRKbXGh7clinSyRbn6ENnzPbWF3ewNyE2Kt+1Pg5rz7fOW8y4x5thqCHNaaP1ZBQ6djRRgLG/kd9fLBCtlE/0r2NtOqHpyUrIbThZcxg14UKKbznSC/vbdamvScVNPzftXhqYy3McKU8eLP6V3ymjBf8eOTcV+v03JbDqug5QWkvzJHPnQd+aegYW9oxZR0vkb4zRCkNJPXoBRM0pIGtBA3/dz3cYC9HuGY+Mk39Kz7T+/6cb6CZCHq0uPEPLtMDUwfU27qxJaTq2dkjZTvzgTatbfxe75fXvKu8oKGavuJRJXndaLgSZq/T8ptKdORE82rvGI7ptF3q2Xek13P88TMb9PGZnho9f50eHl9f2DuejHd3QrCObFmrV/1sXh5cu0Ar/nZMumqGnt20WjPHNDLLrvdYDenpx1yARo6xpWX+bY/ygr6r6b9Olrcj6Tl9pdLGndbBr+rfxpm8co1fkK4HErydc8f5njlcOrJlrV6mOY82xKx7tLhusSM1/Yd/1PQ5J3Xk0/06mFd9z5pN/Uddq4T+PSX7Z3r1//XxMaAHn9CDz/TSCw9O1sObrlXS7ne0a9ceHbWHa/CoGzX+pgka3tOuXU/9VHk/3Npgq8sMHygj66TG35SsJxfa9afMk4odn6whp+Zr+auS7Fu1+N4gLV+3QEnLtmrMV3u0d2/dZ93371mh439bpkcau8XRqxLtWvVTnT6xUot/NlZ3P/FX3X3mmA4e+kxH8lzuUYwcoIQRQ9Q/NlyqLNHx3ft1tCWOsaXtXqaX3vmu0m5ZoFc2TdZH73/o/r0EQy7UfL7q68E4vetxZYxYqZnPbNb4f36g9z/8UB9/VaLY4dOUdOsEDe8t5b3/TBPPN9B0BD1aXObin8qe8jP94KaxGp4wWUNCa79prqLopLK2/UF/WrdZWX60as5sWag7d0/WA4+l6qbxM3TvTTMcb5Se0fGcrVo+x/G0vXt/2PLH0x59vOxxvRj6K82cMkdLpkqyn9Su9S4LFGzW4pQPlHjfr5QycYRuShmrJOcpqz5nzy1bpy1+f1ufu4MbF+quvw1Q0l1zlTRuqAaPmqbhLnPaKkrPKO9ojra8sVVbMj7QcT9+540eYwvLXJ6qs8cW6oHbr1fijO8qcYZqvtnw5TTHNxs2/PnK0ctzZih75kI9cPsEpcydrBRVb2O/Nr3QlG8LBJqvS3hUzCWriwBaii9fIwoAnQlj9DDINA3oLdlPM9EJAKoR9DDH9MkaHlmh4zm+3yoGAKYj6GGIEXrgB9+Vzf6Z3t9gdS0A0H4Q9Gj/bpnR8O1btpGa+cxvNP0K6UjGem1pu8oAoN1j1j3av0E36+4ZczTzzDHlZO1XdtYHOpgn2a4Yq9EJ12vMmAHqGdCcW8UAwFzMukcHEK7+U3+q+26boOED+srm8vS7iqKTOpbzgd564Y/KON7CX/kKAAYg6AEAMBhj9AAAGIygBwDAYAQ9AAAGI+gBADAYQQ8AgMEIegAADEbQAwBgMIIeAACDEfQAABiMoAcAwGAEPQAABiPoAQAwGEEPAIDBCHoAAAxG0AMAYDCCHgAAgxH0AAAYjKAHAMBgBD0AAAYj6AEAMBhBDwCAwQh6AAAMRtADAGCwQKsLsEJISIiCg0MUGNhNXbp2sbocAEAzXaq6pIsXL6i8vExlZWVWl9OudAmPirlkdRFtJTCwm2zhNkldVHmxUpVVlbp0qdMcPgAYq0uXLgroGqCAwABJl2QvsevixQtWl9UudJqu+8DAboqM7KHKi1UqLy/XxcqLhDwAGOLSpUu6WHlR5eXlqrxYpcjIHgoM7GZ1We1Cpwl6W7hNFRUVulh50epSAACt6GLlRVVUVDh7cNEpgj4kJERSF0IeADoJx9/7Ls6//51bpwj64OAQVV6stLoMAEAbqrxYqeBggr5TBH1gYDdVVhH0ANCZVFZVMk6vThL0Xbp2YeIdAHQyly5d4hZqdZKgBwCgsyLoAQAwGEEPAIDBCHoAAAxG0AMAYDCCHgAAgxH0AAAYjKAHAMBgBD0AAAYj6AEAMBhBDwCAwQh6AAAMRtADAGAwgh4AAIMR9AAAGIygBwDAYAQ9AAAGI+gBADAYQQ8AgMEIegAADEbQA20p8XG9ti1Dq2e31g5StXpbhl5bMqmR5SZpycYMvb0mtbUKAdBOEPTN0dgf7cTH9dq2TVqS2KZVoR2ZsGST3t62RvdYXQiATougBwDAYIFWFwCY7IOlKfrA6iIAdGq06AEAMBgt+jY2YckmpY2x1b5Q/IlWzXisttWX+LheS7tOtnrev2dNhpL1hm49EK+3k+Mk5Wrz1HnKXbJJacM+16oZx5W87XbFVa//5Ru6dV66SwWpWu36vpdl6u5DkuzatypFSzM91q+z/caPoX51a7PvXakfL91R8/OE6uP8nXRf2nWy1dTl6zYd5+ulerfnXGpzkuavn6QlGxdqVER9x+HxvpdlHL/vfLd9+qLO56Se47xnTYaSB9X+nLv5DZ+2Z9/7hg55LFPfZ8tRd8Pn0du5cPvdzV7j8lnytj6A1kKLvg3V/tFP0q1Tk3Tr1JXaV+iywOw1ejvtOuVvdnlf1ylt4+Oa4Lqh6Cl67Zps5zIufywjrlPatnh9Wr39VZ/IPuh2txnYE5ZMkWq2730ZSdKg2/V2zT5Wal+xTaN+sUmvbZuis6saWNfXY/A0e43e3na7YvaudKtNYxZ6mRk+TPf9QnphapJundpAyCc+rtc8trn5yzgle06Oi7hOaTXbS9LmL6W45E16beNCRb1ffRxvKDfiOqW51jL7dl31uUu93pZpklQlD/tcq6YmudRt06g017ods+aToz9xWe4NKdnjIk6OAPf83B0adrv7BUo1b5+tRs+jM+QL33D73eXXnKc1ejs5RvtWuR5PM08RAJ8R9G0orrdN+jLbpRWzQ0vnVbf+JmnJTXHSl29o/nqX93/3iewR1ynZdWZ/RL7e9WxFS3K0+lyCP/MxvfulZBs2qSZkP1ia4rJ9l2V6e8ZDrjbX7GOHlr6fK0XYpL3raoO1zvb9OAY3jvU8W+/KfEw/3pwrDZrifudChHTod433ENzzw+tkK/5EL7hs86V5byhXcZrsdmFj1z6X7b305ieyyyZboetxpGvzXrs0KL42bNfPc6+3epno/g1f1DQqXfM9ekAcNcXo8urzMPt2jYrI1Wa35dI1f9UnsrtuKvFxTR7k8bnQDi2d8YZyve3ay2er8fMYp6gIKfeAy3qZj2m+c/kJl8VIxZ9rp8sF2UvzaM0DbYWgb0O5BXbJW+tZkhIn6aoIu/a96RHgmceVLynmMpd1is94/yPt8ce0Zp8RPT1aec57qLc5/iUPUt1wcrsgkZR7RnZJ+d+4BlszjsHLeod2edn2+mzlyqarxruum69/1dtVXy1VVw+Sct/3vCDI1dlijwsbz/PmrNde4PUs13HPmtpzmTbG5uV8N9HsNTXbfTvtOtlkU5Rzw/dcE1f3d+RSe7UJ44fJ5uVzUX0e6qjz2fLlPDr+f1yy91tJP/gm39Frwj37gCUYo29DHyxN0Qez1+jt5IV6e9tC9/HcuJ6yyaZRaRl6O63uum6ttMLjTZ7JXT2ma9+7Urc6W1z3rMlQcnQTN+jKn2Oos54f6rvQcZXYXzGSbMkZejvZy/uFXl7zU82495dv6Nap6S6vNXPDNXMccrV5alJt93nadc4FJunyaPl0DHG9/TqzdT9bPp3HHVo6Y4fjc+T83bv1zqyfp1tzH9drabfr7W23i/F5oG0R9M2ReVz5adc5W6peWqNxPWXzbH2un6db10vVk5vStq1R3NR5ein3jOyK0aEGJ5Y10+w1Sh7U2OS1ZmjqMTjXa1HO303+5iT3oYqWkvi47htjc07aa8kNT9KSX1wnm7dJjjV26F+FCzXKh63lFtil5lzE+XEeX5rnvCipvphdE1d7DJmP6ceZUvV4fvK2Tbq8NT/rAGrQdd8s6frUYwzcVb3dq851HeOpznHXzOPKr9NF3RYcXbMtoqnH0NB6s+MVp3q69Rvk7E6+pi27iydp4jA/W9A+mjB+mFuvh2MYKL7uE/dmx7sNGzi6zYdpomeXeuIkXeVtMl4dTTiP6+dpVb1zFarnB9QOQwBoXQR9M730pmOimef444Qlmxyt5zddb1tzn+3t+ONd3eJ3TOSyjVno8UjdSVqyppEZ677KPSO7R6Des6buLO2ma+oxpGv+5lzZxix0n7+Q+LheS46T3XUCoM+cEwi9zInw/D00iXMs3DUAJyyZ430mu1926F+Fcg9xZ++Bqw+Wbleu4pTsdjdDqlYne/w217/huGPCc8b+L67zcbjEl/OYqtVun3/nBY9zGGDCkjXuY/fOi7ezvk2BANBMdN03V+Zj+rHz3nLH+KNT8SdaNdVzAlOckrdlqHao032ssnYM3308NHdzUss8XS3zMf04zmWOgHPbm9VCY/RqxjHUjOPW1la9XpO7xuvZpn3vSv24iZusla75q/q7jDs7trtq75xmj9G/NG+lLt+4sPazUvyJVq36RPfVjNE79z9VzuGfDDmmRORq89Q3pG23uwyE7NDSGXJ2l1d/9uzat2ql9v3Ct+5/n87jII/Pv9vQQ4zHvI1WHD4CUEeX8KiYS1YX0dqie/fRuXPnrC4DANDGunfvrsKCU1aXYSm67gEAMBhBDwCAwQh6AAAMRtADAGAwgh4AAIMR9AAAGIygBwDAYAQ9AAAGI+gBADAYQQ8AgKtvqD4AACAASURBVMEIegAADEbQAwBgMIIeAACDEfQAABiMoAcAwGCBVhdgirDuYQoNCVW3oCB17cr1EwDUp6qqShcqKlRaVqrz585bXY7xCPpm6tYtSJFRkaq8cFHfnjmr0rLzqqystLosAGi3AgICFBoSpogekQrr3l1FZ4t04UKF1WUZi6Bvhm7dgtQrupdOFxaquOhbq8sBgA6hsrJS9nMlsp8rUURkD/WKjtbpwtOEfSuhj7kZIqMiCXkAaIbiom91urBQkVGRVpdiLIK+icK6h6nywkVCHgCaqbjoW1VeuKiw7mFWl2Ikgr6JQkNCVfxtkdVlAIARir8tUmhIqNVlGImgb6JuQUEqLWO2KAC0hNKy8+oWFGR1GUYi6Juoa9euzK4HgBZSWVnJrcmthLMKAIDBCHoAAAxG0AMAYDCCHgAAgxH0AAAYjKAHAMBgBD0AAAYj6AEAMBhBDwCAwQh6AAAMRtADAGAwgh4AAIMR9AAAGIygBwDAYAQ9AAAGI+gBADAYQQ8AgMEIegAADEbQAwBgMIIeAACDEfQAABiMoAcAwGAEPQAABiPoAQAwGEEPAIDBCPomqqqqUkBAgNVlAIARAgICVFVVZXUZRiLom+hCRYVCQ8KsLgMAjBAaEqYLFRVWl2Ekgr6JSstKFdEj0uoyAMAIET0iVVpWanUZRiLom+j8ufMK6BaoiMgeVpcCAB1aRGQPBXQL1Plz560uxUgEfTMUnS1Sr+howh4Amigisod6RUer6GyR1aUYK9DqAjqyCxcqdLrwtCKjeshms6n42yKVlp1XZWWl1aUBQLsVEBCg0JAwRfSIVEC3QJ0uPK0LFxifby0EfTNduFChwlMFCuseph49o9Q7KEZdu9JRAgD1qaqq0oWKCpWWler82bNWl2M8gr6FnD93nvElAEC7Q9MTAACDEfQAABiMoAcAwGAEPQAABiPoAQAwGEEPAIDBCHoAAAxG0AMAYDCCHgAAgxH0AAAYjKAHAMBgBD0AAAYj6AEAMBhBDwCAwQh6AAAMRtADAGAwgh4AAIMR9AAAGIygBwDAYAQ9AAAGI+gBADAYQQ8AgMEIegAADEbQAwBgMIIeAACDBVpdAEySqtXbblfM3pX68dIdVheDTiBqXq4SBni8eOx1Za5ZZEk9aEDidiXeUKDdj9+lMnn+7op1eH2CThy2sD6DEfTN4gi2OM+Xiz/RqhmP6QMrSgI6maJ/rNA/NqZbXUZdHsEGVyvUvXCFMtc4fm8hM7I0bsYrKuRctQq67luAfe9K3To1yflvpfbpOqVtW6N7rC4MANqlRTrhcnFWtj9HReG9FWphRSajRd/idmjp7ybptbTrdPVsSeutrgfoxIa+omtnX6/I6p9L/u7Wwg6ZkaVxQ3OUdXiEEq6NqO0dSNyuxKTBzqWOKitDSvBsnTew7dpu6cEa92RuvcMJ1fvf/VFvjXPd3yNTdLa+/bhtK1X9HlukoeFejs/tGKQTGXE6LM9eBuf6Z1y26dkT0eA5dKwfc/h15Q+9U0PDXbrgvZzD+oSMHKHIkhyV1r8ImoGgbw2ZO3ToF9fpqssmSWKsGrBE4nYlJvXR4fVx+odz7DdqXq7GPfaKe2CHX69BWqHMR9LrrOcYM16hoU/eKZUU+Lzts2vilOlr13349Ro3/HVlPjJFkjP8n9xeE/YhI3srv2Y/jlqGJi7S4Uwpap4zpB93hHTUjFcc2xz6iq51PYahr6hfP0mZ+3Ui6fuKHirnscUpLFySLleIpDJJIX36SGf2u1wsNH4OI6/9vvLXxymzeozdl3Poci7HXXtKWY/Qbd9aCPq2MHuN3k52H8nP3Zyk+S6t/QlLNiltjK32Bbdx/rpzAXI3J2m+1ujt5BjtW5WipZnV70zSko0LNUoe8wRmr9HbydLmqfP0Uj3btHtMopuwZJPShn2uVb+T7ku7TjbZ3fZ1z5oMJQ9yrekNf88M0GyR1y5S4rW1reUTGXE6nJmqfjcMVtE/VrhN8Dq75nWdeNI16CTpqL6s6Ub2tt4iHc4YqX43qIFl6tu2L44qy6W1X7bxf3Xi2jvVO1E6mymVbZyiEzXvLlLBsTs1qE+qJEfNRYW5tTVsvMtlu6d0rrqOw3c5a8rV+ZIIxYxM1YnD6VLiSPU7dlQnBoxw1p2q6KEROvHRIv+O89j/uizjyzl0GvqKrk2Sew8GWhxB3xoSJ+mqCCn/mx2SJmnJTdLmqUnOgHUGaPImLcl1hKYj5PO1eWqKc5lJWrJmknPp2pnst1aH8Ow1Wi1J67OVm3y7rho/ScqsDug4RUVI0jBNTJQ+qA7la+KkL99wbN954WF33Wbi43otbaHeXhOnW+e5Tmwapvt+8blemJrkMrnQ5WJiat2LEXuLnUigcd4n4zlaqiWnPF93BF1YP0nVIVRS4NJlXN96Tdy2L9z2X70dKczlFc+7C4oKHf979uBRRSYtUuK1Ke5heXin8ksWKeHJXI/zk67Cw3M1NNpxiR81fLBOHIxTgXLVu5+kw3EKCz+qgkz/jtP1YsO3c+g8rluul/6xgpBvZUzGa3GpWp12nWxfvuFsse/Q0hnzakJekj5Yul25sinK2ZyO622Tvsx2WWaHls5zBmhif8XIrkO7XIYA1s9zbjtdn34p2YZN0oTq92bHK644V7nFtduXUnX1ICn3QLocFx5xdVrvynxMP96cKw2aoiWJLsVGSId+53EHwezbNSoiV5vd7ixI1/xVnxDyaEeKdf5E40s1bb2mbttfKzT0yVwl6HVlPhKnzEfilHXM5e3MKcp8JE67/9FHCU/mKnHeCucb6TrxeJwyH3ldJdcuUuKTWeo31PFO2f4cFQ0YqSitUO8BjlAvLSxWv+ErHC18twuP1jyHaCsEfQuwjVmot7dlOP85W9/zPK5mEx/Xay7LxEmKuczRas8tsEuDbtdrSybV3XjmceXLplFp3mfxv3QgV4roWdMFf881cbJ//oY+LZTirkl17ttxsXA2V87eBo8Lh2rrs5Urm6OHoEa+/pXpvpijdyDb7eKltlagPajtonYXp7DwhkLI+3ohffq0wLZ95bKdxJHqV/J37W7kuQBlGxOU+cjrOjHg+zWB7rBIhx+J0+5/SENvcV4EHP6XStRH3RMvV/ix/TorZ/j3vFxRffqo6PBO51h5a55Dh7Nr4trnrZGGIehbgPvtdUkeD4tJ1eptGXo7bZgOrape5g25dnR9sDRFt27Orb1g2Ph4bQtd6Zo/daX2Fccp2XmhsHq2y8rrs5WrOMcMf6Xq6kGOEH/pQK40KF73SJowfphsxZ9rZ6akuJ5ymQnQuOIzbrVKk3R5tD8bAKyQrhMfHVXktXPdgi9q3p3q5zaeXHe9wsPFirw2RVHVLw19RSOujWjatn25ZSz8eo2YURuKbts5UaCicMf4uSQpcbtLF36q+s17RSE1dV6u6sn3StyuoS49c6HRrvUvUsGxCA1Nul6q7nI/vFP5ul4J10r5+2u7+VvvHDqEzMhS4mMux4BWwRh9K7tnze2K8+UBOuvn6db1UvVYd9q2NYqrmTi3Q0tnOC4eHOP7GXrtsuqu91ydLZZGXZPq7Lb/XKsyJWVmKzd5ii5PnKTLh9lk/3yHY/+5Z2RXTDOOaIf+VbhQo5qxBaBNZE5RprYrcXauanLKh6fmlW1M0G5lOW6Lkxy3k2Uc1TjXiWS+bDtzkw7f4Bgnb3C/JX/Xl5qrxCcX1e7POYteh+9Szj+yNK56P8deV9axwXLMgU3XOS2qrdPt6XIFCp+dq8Qk77WdPXhUGtDHLdTPnVkkKUeFrgHemucQbYagt8Ls+AYmraVr/qr+ei1tmC5PlOTRbf7B0hTFrclQcu84OW7d26Gdn8/RqGH9tcTZbe+4oMjV2WJHN3y+a1d95nHlp13nMYHPtS679nnr1neRW2CXxjh6C9y67xs8LqDlnV0Tp380tEDmFGVm1v922cYEz//Eal/fWPtzyIys2lvOfNy2Y5w8Xb705Jd67K+hWqRFNcd8dk2c1/p1+C7945EGduil9nq31eBx1n+MdetWne3Ud/7Rsui6b2W5BXYpwjED3iFVqz1utbtnjfv4+4Txw2SrHhtPfFyr3cbuHRPr7AW1Heof7Ppc9ohhuiradex9h3Z+bpdt2DDFVHfbS5LSNd85TOA2JyDxcb2WHCf73nUut+p555hMGKdktyGGuscFGMHZ7XziIM/PR8dEi76V1bTA0zL0dpok5Wrz1Dekbbe7dKA7xt+Ta37OdbnfXYoZs1Bvb1tY827dGfOOB/SM0icuge64ALhvzHWyfXncfdhg/Tzdmuu8nc5lu5739tcvXfOnyjnEkKG0mpo9jwvoeEJmZGmc23hyscuDX4COp0t4VMwlq4tobdG9++jcuXNWlwEAaGPdu3dXYcEpq8uwFF33AAAYjKAHAMBgBD0AAAYj6AEAMBhBDwCAwQh6AAAMRtADAGAwgh4AAIMR9AAAGIygBwDAYAQ9AAAGI+gBADAYQQ8AgMEIegAADEbQAwBgsECrCzBFWPcwhYaEqltQkLp25foJAOpTVVWlCxUVKi0r1flz560ux3gEfTN16xakyKhIVV64qG/PnFVp2XlVVlZaXRYAtFsBAQEKDQlTRI9IhXXvrqKzRbpwocLqsoxF0DdDt25B6hXdS6cLC1Vc9K3V5QBAh1BZWSn7uRLZz5UoIrKHekVH63ThacK+ldDH3AyRUZGEPAA0Q3HRtzpdWKjIqEirSzEWQd9EYd3DVHnhIiEPAM1UXPStKi9cVFj3MKtLMRJB30ShIaEq/rbI6jIAwAjF3xYpNCTU6jKMRNA3UbegIJWWMVsUAFpCadl5dQsKsroMIxH0TdS1a1dm1wNAC6msrOTW5FbCWQUAwGAEPQAABiPoAQAwGEEPAIDBCHoAAAxG0AMAYDCCHgAAgxH0AAAYjKAHAMBgBD0AAAYj6AEAMBhBDwCAwQh6AAAMRtADAGAwgh4AAIMR9AAAGIygBwDAYAQ9AAAGI+gBADAYQQ8AgMEIegAADEbQAwBgMIIeAACDEfQAABiMoAcAwGAEfRNVVVUpICDA6jIAwAgBAQGqqqqyugwjEfRNdKGiQqEhYVaXAQBGCA0J04WKCqvLMBJB30SlZaWK6BFpdRkAYISIHpEqLSu1ugwjEfRNdP7ceQV0C1REZA+rSwGADi0isocCugXq/LnzVpdiJIK+GYrOFqlXdDRhDwBNFBHZQ72io1V0tsjqUowVaHUBHdmFCxU6XXhakVE9ZLPZVPxtkUrLzquystLq0gCg3QoICFBoSJgiekQqoFugThee1oULjM+3FoK+mS5cqFDhqQKFdQ9Tj55R6h0Uo65d6SgBgPpUVVXpQkWFSstKdf7sWavLMR5B30LOnzvP+BIAoN2h6QkAgMEIegAADEbQAwBgMIIeAACDEfQAABiMoAcAwGAEPQAABiPoAQAwGEEPAIDBCHoAAAxG0AMAYDCCHgAAgxH0AAAYjKAHAMBgBD0AAAYj6AEAMBhBDwCAwQh6AAAMRtADAGCwQKsLMEX41ZHqfmW4gvuGqmtIgNXlAEC7VVVWqfKTpTr3RYlKPi2yuhzjEfTNFNQnRNFTYtQtNkhlF8tVUmnXhXMXrC4LANqlgC6OjuRulwWp58A+Cr+mhwq356viVJnFlZmLrvtmCOoTor4zLldl9CWdOX9W5yvO60IlIQ8A9am8VKXKS1Uqu1imotIiVUZfUt8ZlyuoT4jVpRmLoG+G6CkxKgso1/mK81aXAgAdTuWlKp2vOK+ygHJFT4mxuhxjEfRNFH51pLrFBhHyANBM5RfK1DUmUOFXR1pdipEI+ibqfmW4zleUWl0GAHR41S377leGW12KkQj6JgruG6oLlRVWlwEARqiqqlRw31CryzASQd9EXUMCVHmpyuoyAMAY3JrcOgh6AIDlaDi1HoIeAACDEfQAABiMoAcAwGAEPQAABiPoAQAwGEEPtHP9ht+nX984Rf3aesd979CvJ9+h4W29XwAtim+vA6zU9w49PeUeTezdSxHV/zVWVai44H/165d+o7f0oNbdOlPDu0rXd9+uKRltVdgUpac8oondpdt6SSM3/qWtdgyghRH0gFWG/Ke2/+A2xTn/KyyvcDxpMTgoSBGRl6m3JOm0TpVKw0NP61+n27K40yo4XyF1lwqKvm7LHQNoYQQ9YJE5Y7/vCPmyf+rpjalad9L5Rt87tPbmUc4fXlXqs69aUN0+LUofr0UW7BlAyyLoAYtcHhokSSrO31Eb8pJ08i+a+0e6ygG0DIIesMhRe4nUK1wR37lNTw/foYcOfuNlqZn644IHdX1Iif7+/s366ceOV/sNf1ArJt6m6yMd3/ZVXvJPbcop121jRymibJ9WPDNX/yNpxS/2KqWXlPvpLG3p/lulXnGZIrpKKvtGO/8+V6l7vO3ToXbdMZqyVdLotdp/k3P727/W9Ftu0/DQIMecgvy39NDvn9TOlj5JAJqNWfeARf7n7zuUe1FS4EDdNn2z9qf+Vg8Nv6zxFYf8p/5n2kxHyFeV6ETB1yoI/J7uGnW1IupZpfeQtXpoQLAKTn+tgouSQi7TxPG/1aKoJhTe9UrNnXaH+lV8o9yiEqlrkCL63qEVd9zWhI0BaG0EPWCVr36jKa88qbcKSiRJEb0nac70P2vnTx7UxAZWqxnbL9qhh353syam/0gTV8/S/xTUv05Ely+0In2qpqT/SNen/0UHqyQFXqnrRzah7qBwFR9aoJHrfqQp627WolzHLMHel00SUQ+0PwQ9YKWTf9FD6TfrtnffUlZRhaQg9RswU2t/8Z/1hP0dur6XY2z/4Be/0ltnq1//QisOfarienZz4uuX9T/Vy559VUeLHP83OKQJNVf8U2+9vbvmx03Hv3LsNyDIeacAgPaEoAfagYP7fqOUdeOVuucLFUsK7vV9zf03b0sGS10kqURFJR5vNfAtn+UV+1x++kblzflG0KpyFfm4XwDWI+iBdmTnju3KKZOkIEX0aGjJYIV4tsZDghXcapUB6KgIesAiK376Zz09dpTbo237jR2nEc4ALy/zttYOnTgnSUFKGP64S/f+OD09/HsEPYA6uL0OsEroQN02aa1um1Ch8ouOl4KDHOPvOrdbW973ttI3WvvpPk2ZNEoRUVOU/vAo5RaVKCJyoCIqS1SucMIegBta9IBF9n+1T7klJSpXkIKDHP/Ky04rN/dVPfTHBfqfetY7sWeuHtqzTyfKJAX1UlyvyxRctF0r9nyh8rY8AAAdQpfwqJhLVhfR2qJ799G5c+dadJtXLLxKhecKW3SbQHP0m/Zn7bx6oHRutx56doHesrogwE/R3aP11cpDLbrN7t27q7DgVItus6OhRQ+YoO/dWjFkoCSpIG8HIQ+gBmP0QEczeq3+PuFqBZ/7RgUVkoJ6qV94uIK7Sirdp/R3iXkAtQh6oKM5/40KLlytuPCBiqvuk7tYohPf7Fb6e4/plbMNrg2gkyHogY7ms9/ots9+Y3UVADoIxuibqKqsUt0CulldBgAYoVtAN1WVVVpdhpEI+iYqP1mqgC4BVpcBAEYI6BKg8pOlVpdhJIK+ic59UaKwoFCrywAAIwR3C9a5Lzy/wAEtgaBvopJPi3Qhr0JhQWFWlwIAHVpYUJiq8i+q5NOixheG3wj6Zijcnq+gi4GEPQA0UVhQmEIqg1W4Pd/qUoxF0DdDxaky5f/5GwUUdlHPsCiFBIYwQQ8AGhHQpavCgsLUMyxKAYVddHLjv1Rxyuu3OKEFcHtdM1WcKtM3fzym8Ksj1f3KcIX1talrdybpAUB9qsoqVX6iVGe+OEV3fRsg6FtIyadFfGABAO0OXfcAABiMoAcAwGAEPQAABiPoAQAwGEEPAIDBCHoAAAxG0AMAYDCCHgAAgxH0AAAYjKAHAMBgBD0AAAYj6AEAMBhBDwCAwTpF0F+quqQuXbpYXQYAoA116dJFl6ouWV2G5TpF0F+8eEEBXfmOeADoTAK6BujixQtWl2G5ThH05eVlCggk6AGgMwkIDFB5eZnVZViuUwR9WVmZpEsKDAi0uhQAQBtw/L2/5Pz737l1iqCXJHuJXUFBQYQ9ABguMCBQQUFBspfYrS6lXegSHhXTaWYqBAZ2ky3cJqmLKi9WqrKqUpcudZrDBwBjdenSRQFdA5zDtJdkL7EzPu/UqYK+WkhIiIKDQxQY2E1dujIbHwA6uktVl3Tx4gWVl5fRXe+hU/Zjl5XxQQAAdA6dZoweAIDOiKAHAMBgBD0AAAYj6AEAMBhBDwCAwQh6AAAMRtADAGAwgh4AAIMR9AAAGIygBwDAYAQ9AAAGI+gBADAYQQ8AgMEIegAADEbQAwBgMIIeAACDEfQAABiMoAcAwGAEPQAABgu0ugArhEdEKDw8XMHBoeoawLUOAHR0VZVVKi8vVUlJiUqKi60up13pVEEfHByi3jF9VHmxUsXfFqu0LE+VlZVWlwUAaKaAgACFhoQpPDJCkT16qCD/lMrLy6wuq13oEh4Vc8nqItpCcHCILvtOP50+Xajiom+tLgcA0EoiInuoV69offN/Jwh7daIx+t4xfQh5AOgEiou+1enTheod08fqUtqFThH04RERju56Qh4AOoXiom9VebFS4RERVpdiuc4R9OHhKilicgYAdCYlRcUKDw+3ugzLdYqgDw4OVWnZeavLAAC0odKy8woODrW6DMt1iqDvGtCV2fUA0MlUVlZyC7U6SdADANBZEfQAABiMoAcAwGAEPQAABiPoAQAwGEEPAIDBCHoAAAxG0AMAYDCCHgAAgxH0AAAYjKAHAMBgBD0AAAYj6AEAMBhBDwCAwQh6AAAMRtADAGAwgh4AAIMR9AAAGIygBwDAYAQ9AAAGI+iBNpS4fKve27JSiVYXAqDTCLS6ALScxOVbtXhcuHR0o25OXedliclavuVRjS6o7/2OzHlskZ6vl+jj5dO0+B1JmqPnd85Q393L9IPF7za4Nce5PKlNE1P1YhPebz5HrUNcXjmy6Ubdv9bH1afs0rTbhtR5+eu3YpWzvUUKBNBB0KI30eAZen6u1UXU1Vqt2cTlW/Xezkc1PGeZbp54o9u/TUfDFVU372rdslJ/3blVy29p4aKaKXH5SJ1d7nIsmw5rSMqHPvxen9aItXmadpu0d26strr8y9xb1BalO1z1F41b+4UGXtV2u4R3obO+0LQVf1Go1YXAMrTojXNYR44O1ZCUdN27trVam+3I3HQtHid9vPxGZ6vd3YupN7r8tE73T+wYPRmZi1OV6frC2j/r41se1fDvTJZUX2/E/Rq44ica+NWftHXVQ3XeLd1wpXJaoVYA7RstegNlv75Hdg1V0vLJVpfSyubo+ZShsu9e7TXkzTJEUXWGJdyFzpqvERFHtNdLyAPovGjRm+idhXp24lYtHjdfy29514cQ9BwPPlwz9nxv+odK6b1Hy6cvrG1h3rJSf108VvIY6743/UOlyMv4v3N5myRprBbv/FCL3cbOJc1N13spQ11W8njfm7kjNUSHtamR8XbP43SM0cttTH/04g/13mLJ7sP4fV31z33wev5cavF2zr25N31GI8d6v2KGRers3tUq9KHi6LQ8jdGftPWf1znH8o9o79zxjnWv+ovGPXCDoqoXLv5ImYvuUKnLvgauWKIRES4brFnG/b2oB/I0QtLZvUu1e8Pzjhcb3b43T2vE2p9ooOtLHj0XNcf0t/5u23fbdz1CZ32hxDGuV1JFynnuSn19qLHlXM6bD+/XnTvhuR/HcUbWqdl5Xk9XH7NjOb0Vqy9jXPfpsj2383yDEtfm1XtcMBstekNlLl6tj4vCNXpuI2Pit6zUX53hVzuuPVQpO9N1r6QXsw5LkSN0s+sY9pCeskmyjZjssu05ih8sHcny0jX+zkL9YOKNWr67RCrao+UTb9TNE2tD/N70D/VeSl997DImvXy3I3wbGpO+N2GoVHRGR3w/LS7e1eLpN+rm5XtkV0nNvv0P+aYYoQd3jlR2zVyCZfq4qPacu5us5Vs+VMrghi8EdNVNuixCKspvONDc9Jqmcd/7xDmG7wyjKbs07YEbVPRW9dj+UuXoBiW6jvFO+Yku+3ypy/j/n/R1xA1KTHta0vP6elGstj73kc6qSDnPOZapCS1ftu9F6Kxp0lsucw6e+0hnr/iJxs26333BK36iaT+TsqqXe+uIosYs0YgpDZ2IpzVo2D+V6TKfYe9XkRrxwC5FuywVnZanxDGqOSbHcv69P+22Pm7vZ+6VRjyQ10h99Rt4W54StNp73Yfu0O7quRnFHzmPj5DvjAh6Y72rxWv3yB45Vg820IV/751jZSvao2ddAu7F1I06Ut31v3a/jihcwyfWbuPehKGyHz0se2TP2haps3Wd7eus8Gq3rFTS4Lqt98zF07TpqDTkFv8n792b/qHe21n7769NHsIYqpSd7tuq/rd4XHgTtykpUjq43DW039Xi6S7n3EXi8vkaHdlIyDdVxCkdduvmv18DJw6RvvqTy8z85/X1Hz7S2YgbNKg6jLaP92htPqQv9xZJvfo3MuHLx+17UbrhSve7BQ7docNfSVF9PGdaHtFe196B7X9STrE08HtPN1DXQ8rx6FEo/NtHOqs+slVPJpyyS2OuqNsaLlxVe4HU4PtX/UVDvbxfuuFK7f1KGjixiZPlvvqT2+/CUfcQxTTxwgFmIuhN9s5CZRyVbON+5KWlKNW0wt/x7FY+orNFkq3PEEnrlH20+v9Xr1Oig6/v10kNVbyzxZ34nb5Nal0nThwhW1GO3vM2kc5bb4IPXkx1bSn7WZCbw9rkMYu/tsehpOmb9Xq8rue82mTdPCJc9t1/bp1JlcX5Ouf681U36bKIIuX8zWOM/9BxFUmKjHFvPUen5WnaWse/xDGRUkSMuje0Pz+3X9f9Griidp9jrlDdi4uvPvEYunhe9tNelvNmyq6aBX/RoAAAE7BJREFUbU974AZFKVLdBziP9XtDpOJ/Kr+e1nBj74eO/p6i6nm/8J9HpIjvKaYJdyh8/c+mnkt0JozRG+7F1I2K3zlDKelz9GKqRwzfMlB9JdlSPtR7KV5WLnBuI+uwUlJGOrry547UkKIcLX9nnYbcOUMpCXMkHXEEUs67HhcMjRvSp+kt4yOnSqTBjl4Ff/fbkTjCv5EhBbc/8D52358+7j4uPiBGUYqsGVf3dNb5vzXj0F/9SVvnPuTyWiP783H73kSnOYL97N6l2upswUan5WlMr0b26Yuasewj2js31m2egsP9svVS3fNVo7H3pe59GplJCbQigt5463T/ppF6L2WGnp+7zP2P6Ttf6+TisVJjD2I5ckZ2jVX8XGe3fc4yZUrKzDqslFsGKvGWgRoeWaKDO/0f3z5yqkTq7fdqkqTMnTl6cJyjLvk7ZNCi3tWxgkc1ugW2ZD/lejH2rhZP9/WcPqT8r36igcNuUqieb2RiWz2O5eus+uibhiZrXfUXJYyJbNqDd3zZvjf1dIu3jPs18Gc3KKqeWxIdnpf99JIGttHY+9K5U0WSTxclR3SuWOKyAC2JrvvOYG2qY7w7Zb6Gu73h6C4ekjCn4fXfeVcHi6S+31np6LavDvQjZ2SPHKGbJ/ast/u9MZn/d7Le7nnHZLsGtuscmhiS4m0SmwV6D/SYT+AYGqnD2/HeMlnDI6WT/9f0yYCFf3OMdSd4TlDz1aHjKlKkLhvt7/qOGf+tt31vnlbMFS2wmXqEjv5e7V0Bcgb1Fde5Tc6TH++X5p+qt3veW7d/nbkHzsmWQFMQ9J2EY4JduGxuf4/f1eJ3DkuDZ9SZsHZvumt4vqv3ckpkGzFCfV2D9513dbAoXMNH9PWp295rqK9N1aaj4Rq92P3pdInLtyplcIk+Xus5f8DzuKpnrHt7ul3j957rna910mOyYVM45hO4T3x03BLnjefdEHP0/GLHpMhNHj0TjomFPl7IHLpDu52zzKel1Z18Fp3W2Oxux6S6urPU79fANOdkMecQgevkNsf9+561eAt1H7bvzbF8nfXYVnSax612TeYcw3cNaWevhavSDauVUzxEY9Z6zsR3/NzY+9o+3jkj3v1pgaGzvnD0VvyhejLg88r/vEi64icu58jZ69DEI/R6kTE3Xe/t9OVJizABXfedxjpt2j2t7mzxtam6+chK/XXxo3pv56M1L9t3L9MPXBar7ibXbtdAf1fv5czX6HHhOuJLS9T5dDfHPeu1M+1fTL1RR5Zv1WLnvewOvs40d3Zvz03Xe27rOxXt0fIGb5mrPi+O42/affSS1qZq+Xe21mxHcjybfpM+VIrn0ETRHi1/p6fzeQJO9X4/gZ+2j9fW7Y57rqet/YnHm0e0d1XDq5duuFJb83dp2m15Gnhb7etfvxXrDKKHlPNcf0U+8JOa7Z/du1SZe+d7jNE/pC/3TlPimCWaNmZJzb3sjW/fi0N3aPdbuzTtNse2qpffq5YZoy9ctVQ5K5ZozNo8xwvFHynzuY+UUDNGLzluG3xe9rS82uUkxzwFn96XClfFKnPWF0p0m6PgcZ+9nDPx++RpTM05KlLOc0uV87MlXuc2NGr7n5QzcYnjNr7q++ibsh10WF3Co2IuWV1Ea4sbMlS5Rw5bXQYAoI3x95+uewAAjEbQAwBgMIIeAACDEfQAABiMoAcAwGAEPQAABiPoAQAwGEEPAIDBCHoAAAxG0AMAYDCCHgAAgxH0AAAYjKAHAMBgBD0AAAYj6AEAMBhBDwCAwQh6AAAMRtADAGAwgh4AAIN1iqCvqqxSQECA1WUAANpQQECAqiqrrC7Dcp0i6MvLSxUaEmZ1GQCANhQaEqby8lKry7Bcpwj6kpIShUdGWF0GAKANhUdGqKSkxOoyLNc5gr64WAGBAYqI7GF1KQCANhAR2UMBgQEqKS62uhTLdYqgl6SC/FPq1SuasAcAw0VE9lCvXtEqyD9ldSntQpfwqJhLVhfRVoKDQ9Q7po8qL1aqpKhYpWXnVVlZaXVZAIBmCggIUGhImMIjIxQQGKCC/FMqLy/7/9u7u5C4zjyO4799gSJtXqY10Sg0WrFRjBBBawhpKWa7IUyjFwksSJPmIgFFDEFCwQsNTS4GSpElEiw0F2m6CMuaC5u6IUsTyhqCRiGFVKIN7kwvMtHUdoxtkV5sdy/OmZkz44yOja//fD8Q6Bxnnnme4zC/8/yf59jV7taa8EwFfdSGjRu1YcMGPfdcln7/h2emqAEAZv3631/1yy+z+vHHHynXJ3kmgx4AgGcF01kAAAwj6AEAMIygBwDAMIIeAADDCHoAAAwj6AEAMIygBwDAMIIeAADDCHoAAAwj6AEAMIygBwDAMIIeAADDCHoAAAwj6AEAMIygBwDAMIIeAADDCHoAAAwj6AEAMIygBwDAMIIeAADDCHoAAAwj6AEAMIygBwDAMIIeAADDCHoAAAwj6AEAMIygBwDAMIIeAADDCHoAAAwj6AEAMIygBwDAMIIeAADDCHoAAAwj6AEAMIygBwDAMIIeAADDCHoAAAwj6AEAMIygBwDAMIIeAADDCHoAAAwj6AEAMIygBwDAMIIeAADDCHoAAAwj6AEAMIygBwDAMIIeAADDCHoAAAwj6AEAMIygBwDAMIIeAADDCHoAAAwj6AEAMIygBwDAMIIeAADDCHoAAAwj6AEAMIygBwDAMIIeAADDCHoAAAwj6AEAMIygBwDAMIIeAADDCHoAAAwj6AEAMIygBwDAMIIeAADDCHoAAAwj6AEAMIygBwDAMIIeAADDCHoAAAwj6AEAMIygBwDAMIIeAADDCHoAAAwj6AEAMIygBwDAMIIeAADDCHoAAAwj6AEAMIygBwDAMIIeAADDCHoAAAwj6AEAMIygBwDAMIIeAADDCHoAAAwj6AEAMIygBwDAMIIeAADDCHoAAAwj6AEAMIygBwDAMIIeAADDCHoAAAwj6AEAMIygBwDAMIIeAADDCHoAAAwj6AEAMIygBwDAMIIeAADDCHoAAAz742p3AB4lPdrTvFe+lD98oMGm1zW1wl1aVvv75a8tTjwW7Fbfhy3zvKhDZRfqVbDg89aZOb/7Jxrp3KHQ6Gp0Zg2f48rjaq8rSjgU7G3Vp8Or1J8llacDLc2qSvoCiI0vv04nG3ZLA5063xdO3UR+nU42bFF/20XdTfrRNv97OrFjTB939OpRJt2pPK72OulqirawvhD0a8noYd1ucv+7pEd7mnP0jbVwTzZzSzdbD2tWktSogsAZ+U9rnoBp0UhTi0ZWrofLb3+//LVbNdKZq9uj8WNl2yWtStDPPcdZR8dUs7VvVYO/4lhAB4vGdbWtNR48+XU6sitPUprgWzQnbLP/vVQXD5U6cq5GUx99oGsP53maJ8TPekO88rhO5rjje9ir8229i28bzzyCHmtIl0Kf7FNec5WyJdsXOB7Z5cVSsDtx9n79dVsXM09pm/89HXxxQB+3Jc1GH/bq03UfcpU60rBbkVSVieGLOr8qfYIlBP06k316QtWF0Ufecr5TbtVn3VJtvQr0QINN3XohcEZ597sVLq1X2UYpVhLe7imbJ8yqNaekHvosVyPXV2Z8jq16oUSaGp1vTO/r9p192tNcrnBCidupCuTdf1+3L3fNGUtk0D0e45apow9nbunmlzmqqVXSUonT7vNfLv25+PnxE6n0ZWVJ8d9BsqTSfkbjaD2s509PqFqJJfjE2fkC5/iyVBA443526uW/UK/I4L8ULv1z/BxH7e+X/83JxM/SkqjUn3b7FOzNoOTszow3Rx9HBjylame2XjzWqf4tzTrorgBMR0vh3tfWBdReF9FQdLactGQwnVw+T37f8Ss6+/Wu2GsKGwKq0njKMvg2f40KIwP6eMEKQqWOnDsk9bbqUx3PqO2M2oq9b5pqRsLYPOcE6wZBv45kR7+0m5wv7ayjY6oJ9CR8sRbUVmmwKdedDTbqBUm+ar/CnbnqG3XbaJ5Q2cwt3Wx6XbPuF33F0UbnS7ukR3vcMnJoVFJJjwq2r+Agt+fIp8f6xjO7TTUmSdLoDYVn9irvtUaFRt3AKdmnvI0P9I0bQNnl0mBTrhPYJT3a03xKBXe63AsDZ+ybBt9XX/T5R3uk60MK1dYrZ780FQ31aLvLcMEze7lPoQv1qrnQn3ofRkmPe0ETLe13qOzCGZVNdrkXHWnGsQhpz7G6FGrt0mRS6T7r6JjKSvcpS12xz152ebEi97uXOOQl5efLp3H1LxSElcfVXveihj5qjQVRxbGATrQoYV168+5m7ext1dlL0de8owNffaBrD3t1vm0oZdhV7FR8ySC/Ticboq9RLAgjva06PyxJeTrgz5OGL+rs8MLl9dwtPk2PDWW2bh6VYdtPr0gH//KdPm5rdfpXeVztDe9JhP26wq779aKkR68WPtCgZ2Y2e7lPoY3lyimJPy0y2D0nKCKDf43NeKc+v6WInmjkk+jFQYv+M/hEvq3eTXGP9VM0aEcPK7Ris/kOldUWzxlDqjE5ujR5/4l8pfuU5R7Jeq1cvuBQ7PlTH3qCc/SGwjOb9Lx74ZJ11K+CYHfCrHTq8mHNqkWTQamgvCN2PLndpdWikaZcDQaLVX1hQv5AT2w8kpT99l7J8zuM/s6i/Us/jsylP8epzd65p0jCZ69DOYVPFL7TNd/LfpttW7Q58p0m5n1Sng68UaTpgb8lBNDdS1cU9O3QrnzPU8evxEN8+J8aiviUvW3+Lty95JktPxzSA89rKt5y1tbjFwZhXevLdIE/T7kvSpHJcMKxAy0BtZ9z/x2rzLCtqCIdPOd5vfvvxO7U23znF9HQ3z2VFPd8Fe/K+w1tYbUwo18vtufIJycIkoU8m7aeTGbyResJ8mSjNxSeOaPqCxMpysPLYONe1XjGFPosV7eTLizmG9PsnXuKVDuBExptVE7pJoW+9G4Ya/SUnt33cI/nlG5S5P6DlO1O3Xsg1Ub3CnTolWpppHN5N6JNfZirPre/NRfG3F33jXrhJclXeEb+6jOJL5h5WVkLjCNTmX1uPJKqKc7FRp/6lmvzoG+LcqV5Zr15yvYlB6YkhTUVDWX3AmD6u7kb93w5C23om7sjPihJqtTOIiny9dNtBkx8/7CudbTqmtyd8lsW21q6JYL3dGLHYtv6QRMJM/ewJn6QitM9HWsSQb+urMQtdk6pNuSWh/3Vp5b3Nq/k/QGL5QaOM0tPKq+769qKlbTddXbPy9MG3PVujbx5ytkrsL1KBTP3dHNFdsA75/+n0xOqfrtDoVEnwNNfdDVK+g1B/dS6FPqyXmXlxYpeNCVeYC2hR99pWjuUm69YWKcW0dSi6t8ZmrMj3l3LXpL3DeursYiqtizlnQNAIkr368W3k4q4m9RWhlNOvjkolb3dsfDTV41Tvi8o71DWa+WSpwTtlNu70wRkl376PrE8P7ddKe+1Rnft+cbSrz3P4+fHT2L9+Ol7JS2teM0/jng7cc9v3bQ0nbw+pFBhlbLd/QuTy7XE87BX/eM+Vb01XwnbmbnPLSnnKdv3dBcA23bt0ObxK2nuXU/3vpl79NWYpotqdCB/4ecunbCmIsnHnKrI/FItNWCtI+jXi9HD+ia4SWXvetdvG1VwOnE996nt71fZ/vjDJQuFZTR7uU+hQr8qSpWwRjw7+VgqrIrNvLKOnkoo4U99fkuRwvqE8WYfjZ/P2Tv3pNJTenW51p6j73l6TAUJF3AdeqV6k0L3WtL20/t7mm8czjnwx9vf3++5a2ORXno56bPWoslgsV59dzn3LzjuXrqiYNEhtbfUKWE5Pb9OR/zObPjav8e1efc7CYFZceyQCsdvLnrjmFNKdzya/EEq2qUK9/E2/zueEn6q983TAb/3omSBPQAPe/WPAamqIaAji12OX6jttJwSfOEb8fNZceyQ5n40inTQs0dgm/8dVWlAX5j4A0XPDkr368jUh+9rJHBmzpr2ks40v53UpuYJ+Wvdx2vxr6PN0aLJYL0KXrqlu0n3og+WT8T2NUQGuzUyUx8v3Y8e1u3OHu1JHm/s5zcU1l6VBbvjf8hmGfz8WM6dEJ5jCbc0jh7W7c/65a+dUEG0nzO3dLM1g3FEz0G0/WC3bg5uVc3WxfUxfmdA4t6NqXsPVF27VSOfLPdnZFiftg07u+jP7fYcH9fVNnd2OXxRZ3Vc7Q0BVcV+fEVnLy0mlZzgrqprVvtu91ay4Yu6ujOgg+cCOihpeuCKhiKH4qX7FO87PdCpa26/vxio0Ym6gNrr0t8C96jvA539qk4nGwJqr/P+ZFxX29L1P7O207l76Yp2njsUO5/B3k4NvehdknDf/+tdaj93yNOfDP+yHtaM323w5fxvtTsBrE3Ld++8Gct27zyApULpHkjDKfUv49rzuufeDrnC+xcALA6leyBZ7K/pGfwfCS2J+C2LK3ILJoCnQukeAADDKN0DAGAYQQ8AgGEEPQAAhhH0AAAYRtADAGAYQQ8AgGEEPQAAhhH0AAAYRtADAGAYQQ8AgGEEPQAAhhH0AAAYRtADAGAYQQ8AgGEEPQAAhhH0AAAYRtADAGAYQQ8AgGEEPQAAhhH0AAAYRtADAGAYQQ8AgGEEPQAAhhH0AAAYRtADAGAYQQ8AgGEEPQAAhhH0AAAYRtADAGAYQQ8AgGEEPQAAhhH0AAAYRtADAGAYQQ8AgGEEPQAAhhH0AAAYRtADAGAYQQ8AgGEEPQAAhhH0AAAY9n+4vTL6NuCCDAAAAABJRU5ErkJggg==;" vertex="1" parent="1">
                    <mxGeometry x="50" y="50" width="246.88" height="343" as="geometry"/>
                </mxCell>
                <mxCell id="12" style="edgeStyle=none;html=1;entryX=0;entryY=0.5;entryDx=0;entryDy=0;" edge="1" parent="1" source="4" target="5">
                    <mxGeometry relative="1" as="geometry"/>
                </mxCell>
                <mxCell id="4" value="Username: mike&lt;br&gt;Password: 123" style="rounded=0;whiteSpace=wrap;html=1;" vertex="1" parent="1">
                    <mxGeometry x="360" y="50" width="185" height="60" as="geometry"/>
                </mxCell>
                <mxCell id="13" style="edgeStyle=orthogonalEdgeStyle;html=1;entryX=0.5;entryY=0;entryDx=0;entryDy=0;" edge="1" parent="1" source="5" target="9">
                    <mxGeometry relative="1" as="geometry"/>
                </mxCell>
                <mxCell id="5" value="POST https://reqres.in/api/login" style="rounded=0;whiteSpace=wrap;html=1;" vertex="1" parent="1">
                    <mxGeometry x="600" y="45" width="185" height="70" as="geometry"/>
                </mxCell>
                <mxCell id="6" value="" style="shape=image;verticalLabelPosition=bottom;labelBackgroundColor=#ffffff;verticalAlign=top;aspect=fixed;imageAspect=0;image=data:image/png,iVBORw0KGgoAAAANSUhEUgAAATsAAACrCAYAAAAZzTswAAAR4ElEQVR4nO3dX0wb154H8C9t2rSNSNV2MFk7KQ8mkpGpoErutkhIjYNChGKqe9W8QYCNuAp3eYo3KlhCeYgiQaos6D7Q0FU2yz+/UfUqGKGACKyERLptNqDGiqWEB5JCg+OqWqKkTdOEfZgZezy2wTZjbDjfjxR1sOfP8TT+cs6cyfxyVldXV0FEtM29kukGEBFtBoYdEQmBYUdEQmDYEZEQGHZEJIQdia74+7M/8OuTZ3jx/CU4gUtEmyknJwevvvYK3ty1E6/vTDi2IveRyK0nvz/7A49/eYo3d72J13e+ltKBiIie/ray4X28sfOtlAIvoWHsr0+eYdfuXQw6Isq4X588S2m7hMLuxfOX2LHj1ZQOQERkpBfPX6a0XUJhx2t0RJQtUs0jzsYSkRAYdkQkBIYdEQmBYUdEWePq1atp2zfDjoiyghp06Qo8hh0RZZw+4NIReAw7IsqoeMFmdOAl9M/Ffn64grff3W3ogYlIPEb8c7HnT4H39iSfR+zZEZEQGHZEJASGHREJgWFHREJg2BGREBh2RCQEhh0RCYFhR0RCYNgRkRAYdkQkBIYdEQmBYUdEQmDYEZEQGHZEJASGHREJgWFHREJg2BGREBh2RCQEhh0RCYFhR0RCYNgRkRAYdkQkBIYdEQmBYUdEQmDYEZEQGHZEJASGHREJgWFHREJg2BGREBh2RCQEhh0RCYFhR0RCYNgRkRAYdkQkBIYdEQkhg2EXwOQZNxrPTCIYsZwBs4NodLrhmdW/4YPH6Uaj8qd9OBC1qf+SG43OQfh1y0aa6+tBVd0w5nTLWcM3vOE2LY97UFXXo/xJfV9G7WfLC07DVdcD13gK3yjtthvZT5bJfM/OaoIUazkr2FHjbcdl72nU2NZYzWYJt1u7bKTCd7An1vI2kX+kBqP9TRhtscRfKTgNV50H3jjfu7m+HjTMFKC3vwmj/U3oPbGC1nPTWE5Pk7c9q1mKubxV7cjcoU34J2us5QworcVlb2qbSntNwHz0spH2mHOBhehl0vANo3WhGL1ny5GvvJR/5CiaZ4Yw5CtHsz2jrdt8Ujk6+8tT3FaCNdbyFpezurq6ut5KPz9cwdvv7t6M9kQKTKL95FgoP6ynTsNdbQIABIe70PpjKWrmx+DxA47ztUDbICZhQs2V03DIq8F/yY2LI+FdOs63o6Y09v4j3otsCCbPdOHGJ+HjJ8cHj3MQk7ZKdFx0GN/zC07D5bqNO8qPRSeOo/OIfJTlcQ8aBnajo78aJaEN/Oium8K8Zr25vh60TqjvW3Trr8M3jKoLQEcL0HphUX6tMDJ41GOGf6fEOYa6L+17us+nJX9WwHtuCAufNUWF2vK4BxdwFJ1HJMz19aDPfBwtuIaGgcdR5yqh8+AbRpX6GRXOFvW4fnTX3URB51HgyyF03wOAXDR31sAZOkQQ3nPqe7HOk74N0W1cW+R5jt5WbeMBLLjU9fRtTJ+nv61seB/PnwLv7Uk+jzLYs1uHEkTvn2+HuxSQA6ML7dAEzsgYls6348yMGxfbxlBz5TRqvujCjW8DcFSbgNlB3Cxrx+W/yasHh7vQ2jaIA95a2ADA5IDb64AaRluSEgTWliZ0hr5wQ3BB/kuef+QAnANTmPYBJWoQ+O7CCws6tEG3UIzefvlLtzzuQUPdcHKBh0W0fl2M3v5q5CtfuAvjNuWLFg7XUW0IJ3oMtZcSnIbLtYDDUV9MPxbuWVBuR2QYVRzC6MHdwFJ4zTsDQ2goVD5rcBou1zV4P5T3t+558A2j6sIKmjublOPLnyvSY3S7hlB04jhGz0ryPr6cxp/OliNfDbqCQxg9awud+4ZzCAXe8rgnog3Js6G534Zm5VjXY67zGN2um2jubMKo+rlDbdy+Mn/NLo7gt7OYP1ar6WnZcfSUCfP/7QtPYtgqcVR9/1glHCbdcLi0NqKnJn1UCise4afoeYY0U679paFXt3xrAXcqDml6NDYcP5GLOzN+5VqVDeUVgPf78LTJ3PeLKDpRpoSMH9MTuWj+V+3w7wCcWMS0L5mWWNAR+rLIx7yzpPyfUsK1XtPDSO0YcfjuwluxHyXwo1sJo94TuShSrjOF2gFE9qQkCVY8xsIykMh5kM/b0XV7QNreVL55N3DvFzwEgKAf1+9Z0FEfvgBccqwYRfcW8J32OqT+5zRwtoR/YZQctITbuI1lbc8u+GMAGBlE44jujbUmCqIow8eI10z4eKONyyIPlx4DE1OomtD1MArDiyXHilHkuou5ehtKlC/14U7lb3owiHk8htfVg27dvp0GtXF5aQUoLNBNqkgoKASuLwUB+8Z/BRSZJcA3A29hAXol+bxYD0rh91QFkqb3IveCACRwHoJ4sADAvH5bIi7m26sx2q8sL/+CO1hEa12PbotcHFaW8o/UoBceNITakeQlBYora8NO2msCjlXi8t9iX1le/xdfAJNnBjF5rDa8j8Ak2k9G3V+ype0x5wIVBzBav8ZvAcmGw4VD8lAWd+GtOIBR9fsoSbAiN8bQ0Dja3k04aIJYuAdYP9v4QZeXVsL/LdiPfATx3QKAg+H31rUJ5wH576AIQP064ZV/pAajR+Tlub4etJ6bjrquR8nL2mGs9FEprCODMe59S9QjLPkB69485ecAJr8YS8dkaQKU+/XScB9h/ocFKJqYQveaw0EJzs8s8H7vx9z3i3Ae1AajDeUVj9H95fq3aMj3+KVwz5V9P5xYRJ9mu7m+KXgLi3E8mVlSZdh5/Vbk8fPNuovVQT+u38tFQX4Q380Ahz9MJL3WOw8S/lSmvTygn3BJpP02HC5cRGtf4ndi7jHnxnw95f8XBvrh3x3452IH/v6/GWtCUrK2ZweTA+4rQPtJNxo1L2tnZNdmR815OxrbutD4lfyK43wtHG1joTWCw11o/UpzAa/NjUntMWYH0dimSRG/si9tbzHTpHJ0dgIuVw+qNC9HzcLZ98N5YQqthcXorY/cRUl9Ezr6etBQd1vzqpHDJxuaO4NwuYZQNaC8FDELqZuhBJShnn6W0IbmlruouhDeT9GJ4+g0y9fl8o8VoGhgClUTFjSfALpdQ/IkRYI9tfXOg3ori/q+s+U4mr8eSuJOIAnOs8eBc0Oo0k5saM6FfiZWPn4SvTr9bPE95VxVHFq795+CDxx/Bv7rH/D8xz9Q2/NnvGfo3o2X3beeECXEj+66uyjf9GtbymxsS/QtL2K4hb8Xu+D5l078z799mNAWmbz1JGuHsUSJs6G8YlH3ryX86E5iuEjJ+/mb/4QHQI0jsaDLtOwdxhIlIXoIKg+BKR2UHh3saJuYxKdbZOaEw1gi2jQcxhIRpRnDjoiEwLAjIiEw7IhICAw7IhICw46IhMCwIyIhMOyISAgMOyISAsOOiITAurHZZnZQV3t2E86TUXVCM1pj1I/uUL3YtdoQhPdcD6pSKbFoQH1ceR898vMHtcuUdpnv2WV13dgssgnnKd11Quf6elCVtieR2NDc34TR/uNoLlx/7czKRUF+rGVKJ9aNzXqbcJ6MqhO6kVqlm0aC82yTYfU1kpb/DoqwEr1MaZe9Tz2ZHUTjoAUdtYtoDT0t2I4zahlEAGo9V0+osxBZMxaIrhsb9aRj/dOI1dquSr2Kj3X7U4+5VKvUmNVvr3uKsf+SG9/sPY2/whN6KrK+Dfo2Rn/OBCjtSPxJzsmKfppwZL3U+LVKo5++q1KeAhwqURhdX/V6mWZf+qfwxqi5GnO7WO2IuS1i1Ki16EopQvfzYuRTgPXbxzuOoFg3Nh7/GFoHK9HhrYWkhMzFS75QmASHx4DP23FZWxD7i0l8oJQsDA534eJ8JTq8cUoYBibR3vYINVfadYEGwGTC+zEb9QhLfhPMZigBo91ebmPjpcjAm/+qC602pR2BSbSf9GDyIzlE/ZfckW2cHURj20ZOWjpE1zuNtHat0pL6JozWK2GDGI8Ht5ehuXAI128F4QwF2wy671nQcVatgjYNV0TN1uSp7Vge96BhJtbH1NfgXUNUDVkACMI7ArT0Nynhpq+fS5mU+Wt2a7LjTKjWqgmOWjswHwhdnJeqayNCylZmB/yLkRfv/bP4Yc06sQHc+DbWCnkw2wJYWgLUAt2TutX8Mz6lXq36itLGkVuIuDKl9hYBJUTD+705YkLN5wbUky2txWVve3p6dWrwGFzDIExfzEau0YqK/brHrEcX2zHS3MhtXQ3e2B6Me2L0RAFAgrO+PKJUY0T9XMqo7O7ZxaKEmQQopRH1FcPCf1Ol6tPoQBdaT7rhUd6LGB6Givpoi/Iow1Pl+tiNBwEAt3DfBtz/NgDHRwHcRx4OmAL4aR6wfpKHCGYLrJjFTwHApuZOxISCXDAbABAI4D4SKkWaUbHrvhor/8gBOAdu4rtgOZySUrC6UxOuocJC4WI7TkNrP8h1YYvK1vu1s4hupYBNrB7m8rgHDQOPI1+sMKqNtBFbKuyCDx4BtlIlOHzwnBwDTp3GZbU3E2MIKFWfxuVqedl/yY2LZybDvSxADjyvQ7N9F8zKdTppr7xf/8wjfPx5JZa+8CG4bxHzNgskmAArMP/jIwCa3tTSIuaRh7+k47JZhsSu+2o0G8orptB3KwinWVfbVqWdAPENo+qCBwWG1XmVsK9A7YWttUMLOvrL8ODcEKr6EDkk9w2jYQARQ1t56E7ZIMuHsVo+XPsqAOsndqVXJ/eK3t9nCr3vaVv7hiU1vOIyWyJmIqV9eZj/cQw350vxgcmOA9ZZ/PAAoZ6arcwOjIxphrdyG6ynKhObXDDZ8bFNM4zWT3YkY3YQjU432ofXHLOnRqn7mky901j2mHOBibtx71MrOVYMDFyD6+sVNB9b5wwqBaeNVHLQAqxbgxeQZ3QPwTkxFXErjVyQezf2qVnpG44zMUOZkOU9Ox8uOt2hnxzn2+EuVX4wOfDXU7NoVWq9AibUnK+EtS08Wxd7llPTq4sRLo7zmskKswXWkTHcP1UJCYBUloeLSpgBAEpr0XFKO0xOpq6t3GbH55W4ERpG23HmSiW+Obm43oabzIbmfgB1U6iaCNc7DQ0jE6xVqtZdlWvCAlG1aSUbDhfeRjeK0aLvXOmPoRzfKcV5P6oN+qLWt5XiPJo22Ksx2jKMqgs9mvXi1c+Va+HOu6ZQNXFXXkf/+QqL0XFiBa1LMU4pbbrsvvWkDcnfgkFbWPzbRmh74K0nRACWx6+hG8XoZdBRGjDsKOPCN/ta0NHPG3ApPbJ3GEtE2w7rxhIRpRnDjoiEwLAjIiEw7IhICAw7IhICw46IhMCwIyIhMOyISAgMOyISAsOOiITAsCMiITDsiEgIDDsiEgLDjoiEwLAjIiEw7IhICAw7IhICw46IhMCwIyIhMOyISAgMOyISAsOOiITAsCMiITDsiEgIDDsiEgLDjoiEwLAjIiEw7IhICAw7IhICw46IhMCwIyIhMOyISAg7Mt0AIhLb1atX47736aefGnYc9uyIKKPiBZqRQQcw7IgoC+iDzeigAxh2RJQl1IBLR9ABQM7q6urqeiv9/HAFb7+7Oy0NICJxPP1tZcP7eP4UeG9P8nnEnh0RCYFhR0RCYNgRkRAYdkQkBIYdEQmB/4KCiDbFwoP5De8jLy8v5W0TDjsjpoyJiDbirTd24/+eppZFHMYSkRC2xTB2dnY2000g2hZKS0sz3YS0Yc+OiITAsCMiIRgadvX19Ubujoi2iK3w3Tcs7LbChyWi9Mn2DDAk7LL9QxLR5sjmLNhw2GXzhyOizZetmbDhsOvr6zOiHUS0TWRrJhgyjM3WD0dEmyubs8CwCYps/pBElH7ZngGG3nqS7R+WiNJjK3z3eVMxEQkhobDLyclJdzuIiBKSah4l9CCAV197BcCLlA6wGbbzP14morDfnz1X8ih5CZVS/P3ZH/jt2dOUDkBEpHrrjdRKsr58+RIvX67iycoT5L7zFl7fmfwDmxIKO0AOvF+fPMOL5y+R4CZERIbIycnBq6+9gjd37Uwp6IAkwo6IaCvjbCwRCYFhR0RCYNgRkRAYdkQkBIYdEQmBYUdEQmDYEZEQGHZEJASGHREJgWFHREJg2BGREBh2RCQEhh0RCYFhR0RCYNgRkRAYdkQkBIYdEQnh/wFppxGQtEHfUAAAAABJRU5ErkJggg==;" vertex="1" parent="1">
                    <mxGeometry x="580" y="128.93" width="225" height="122.14" as="geometry"/>
                </mxCell>
                <mxCell id="14" style="edgeStyle=none;html=1;" edge="1" parent="1" source="9" target="10">
                    <mxGeometry relative="1" as="geometry"/>
                </mxCell>
                <mxCell id="16" value="TAIP" style="edgeLabel;html=1;align=center;verticalAlign=middle;resizable=0;points=[];" vertex="1" connectable="0" parent="14">
                    <mxGeometry x="-0.2986" y="-1" relative="1" as="geometry">
                        <mxPoint as="offset"/>
                    </mxGeometry>
                </mxCell>
                <mxCell id="15" style="edgeStyle=none;html=1;" edge="1" parent="1" source="9" target="11">
                    <mxGeometry relative="1" as="geometry"/>
                </mxCell>
                <mxCell id="17" value="NE" style="edgeLabel;html=1;align=center;verticalAlign=middle;resizable=0;points=[];" vertex="1" connectable="0" parent="15">
                    <mxGeometry x="-0.3286" relative="1" as="geometry">
                        <mxPoint as="offset"/>
                    </mxGeometry>
                </mxCell>
                <mxCell id="9" value="RESPONSE.OK" style="rhombus;whiteSpace=wrap;html=1;" vertex="1" parent="1">
                    <mxGeometry x="900" y="90" width="170" height="180" as="geometry"/>
                </mxCell>
                <mxCell id="10" value="USER.HTML" style="rounded=0;whiteSpace=wrap;html=1;" vertex="1" parent="1">
                    <mxGeometry x="925" y="370" width="120" height="60" as="geometry"/>
                </mxCell>
                <mxCell id="11" value="NETEISINGAS SLAPTAZODIS ARBA EMAIL" style="rounded=0;whiteSpace=wrap;html=1;" vertex="1" parent="1">
                    <mxGeometry x="1190" y="145" width="150" height="70" as="geometry"/>
                </mxCell>
            </root>
        </mxGraphModel>
    </diagram>
</mxfile>